<svg xmlns="http://www.w3.org/2000/svg" viewBox="0 0 900 1100" role="img" aria-label="Luxury wedding invitation preview">
  <defs>
    <linearGradient id="a" x1="0" x2="1" y1="0" y2="1">
      <stop offset="0" stop-color="#fff7eb"/>
      <stop offset=".48" stop-color="#f4d8d3"/>
      <stop offset="1" stop-color="#243f38"/>
    </linearGradient>
    <linearGradient id="b" x1="0" x2="1" y1="0" y2="0">
      <stop offset="0" stop-color="#b98d2f"/>
      <stop offset=".5" stop-color="#f7d77a"/>
      <stop offset="1" stop-color="#9e7021"/>
    </linearGradient>
    <filter id="c" x="-20%" y="-20%" width="140%" height="140%">
      <feDropShadow dx="0" dy="32" stdDeviation="30" flood-color="#1f1418" flood-opacity=".25"/>
    </filter>
  </defs>
  <rect width="900" height="1100" fill="url(#a)"/>
  <path d="M0 780c150-130 278-122 388-46 130 90 260 112 512-64v430H0z" fill="#102820" opacity=".88"/>
  <circle cx="220" cy="185" r="118" fill="#fdf4e4" opacity=".52"/>
  <circle cx="715" cy="310" r="160" fill="#f1a9a0" opacity=".25"/>
  <g filter="url(#c)">
    <rect x="145" y="145" width="610" height="760" rx="42" fill="#fffaf2" opacity=".78"/>
    <rect x="181" y="181" width="538" height="688" rx="34" fill="none" stroke="url(#b)" stroke-width="5"/>
    <path d="M450 270c78-80 183-22 174 74-8 88-109 143-174 208-66-65-166-120-174-208-9-96 96-154 174-74z" fill="#7a1732" opacity=".9"/>
    <text x="450" y="640" text-anchor="middle" font-family="Cormorant Garamond, Georgia, serif" font-size="82" fill="#2a1b1d">Aarya</text>
    <text x="450" y="710" text-anchor="middle" font-family="Cormorant Garamond, Georgia, serif" font-size="48" fill="#9e7021">&amp;</text>
    <text x="450" y="790" text-anchor="middle" font-family="Cormorant Garamond, Georgia, serif" font-size="82" fill="#2a1b1d">Dev</text>
  </g>
</svg>
